<?xml version="1.0" encoding="UTF-8" standalone="no"?>
<!DOCTYPE svg PUBLIC "-//W3C//DTD SVG 1.1//EN"
 "http://www.w3.org/Graphics/SVG/1.1/DTD/svg11.dtd">
<!-- Generated by graphviz version 9.0.0 (20230911.1827)
 -->
<!-- Title: G Pages: 1 -->
<svg width="1548pt" height="114pt"
 viewBox="0.00 0.00 1547.60 114.00" xmlns="http://www.w3.org/2000/svg" xmlns:xlink="http://www.w3.org/1999/xlink">
<g id="graph0" class="graph" transform="scale(1 1) rotate(0) translate(4 110)">
<title>G</title>
<polygon fill="white" stroke="none" points="-4,4 -4,-110 1543.6,-110 1543.6,4 -4,4"/>
<g id="clust1" class="cluster">
<title>cluster_0</title>
<path fill="#bbdefb" stroke="#1e88e5" d="M310.35,-21C310.35,-21 851.1,-21 851.1,-21 857.1,-21 863.1,-27 863.1,-33 863.1,-33 863.1,-86 863.1,-86 863.1,-92 857.1,-98 851.1,-98 851.1,-98 310.35,-98 310.35,-98 304.35,-98 298.35,-92 298.35,-86 298.35,-86 298.35,-33 298.35,-33 298.35,-27 304.35,-21 310.35,-21"/>
<text text-anchor="middle" x="580.72" y="-80.7" font-family="Times,serif" font-size="14.00">Web Interface &amp; FastAPI</text>
</g>
<!-- User -->
<g id="node1" class="node">
<title>User</title>
<ellipse fill="#c8e6c9" stroke="black" cx="35.42" cy="-47" rx="35.42" ry="18"/>
<text text-anchor="middle" x="35.42" y="-42.33" font-family="Times,serif" font-size="14.00">User</text>
</g>
<!-- WebServer -->
<g id="node2" class="node">
<title>WebServer</title>
<path fill="#ffeedd" stroke="black" d="M462.6,-65C462.6,-65 318.35,-65 318.35,-65 312.35,-65 306.35,-59 306.35,-53 306.35,-53 306.35,-41 306.35,-41 306.35,-35 312.35,-29 318.35,-29 318.35,-29 462.6,-29 462.6,-29 468.6,-29 474.6,-35 474.6,-41 474.6,-41 474.6,-53 474.6,-53 474.6,-59 468.6,-65 462.6,-65"/>
<text text-anchor="middle" x="390.47" y="-42.33" font-family="Times,serif" font-size="14.00">Web Interface Server</text>
</g>
<!-- User&#45;&gt;WebServer -->
<g id="edge1" class="edge">
<title>User&#45;&gt;WebServer</title>
<path fill="none" stroke="black" d="M71.24,-47C122.7,-47 220.93,-47 294.7,-47"/>
<polygon fill="black" stroke="black" points="294.35,-50.5 304.35,-47 294.35,-43.5 294.35,-50.5"/>
<text text-anchor="middle" x="188.6" y="-50.95" font-family="Times,serif" font-size="14.00"> 1. Control Digital Footprint</text>
</g>
<!-- FastAPIBackend -->
<g id="node3" class="node">
<title>FastAPIBackend</title>
<path fill="#ffeedd" stroke="black" d="M843.1,-65C843.1,-65 730.35,-65 730.35,-65 724.35,-65 718.35,-59 718.35,-53 718.35,-53 718.35,-41 718.35,-41 718.35,-35 724.35,-29 730.35,-29 730.35,-29 843.1,-29 843.1,-29 849.1,-29 855.1,-35 855.1,-41 855.1,-41 855.1,-53 855.1,-53 855.1,-59 849.1,-65 843.1,-65"/>
<text text-anchor="middle" x="786.72" y="-42.33" font-family="Times,serif" font-size="14.00">FastAPI Backend</text>
</g>
<!-- WebServer&#45;&gt;FastAPIBackend -->
<g id="edge2" class="edge">
<title>WebServer&#45;&gt;FastAPIBackend</title>
<path fill="none" stroke="black" d="M475.08,-47C543.46,-47 639.47,-47 706.6,-47"/>
<polygon fill="black" stroke="black" points="706.44,-50.5 716.44,-47 706.44,-43.5 706.44,-50.5"/>
<text text-anchor="middle" x="596.47" y="-50.95" font-family="Times,serif" font-size="14.00"> 2. Streamlined Environment</text>
</g>
<!-- Proxy -->
<g id="node4" class="node">
<title>Proxy</title>
<path fill="#ffcdd2" stroke="black" d="M1135.85,-90C1135.85,-90 1042.6,-90 1042.6,-90 1036.6,-90 1030.6,-84 1030.6,-78 1030.6,-78 1030.6,-66 1030.6,-66 1030.6,-60 1036.6,-54 1042.6,-54 1042.6,-54 1135.85,-54 1135.85,-54 1141.85,-54 1147.85,-60 1147.85,-66 1147.85,-66 1147.85,-78 1147.85,-78 1147.85,-84 1141.85,-90 1135.85,-90"/>
<text text-anchor="middle" x="1089.22" y="-67.33" font-family="Times,serif" font-size="14.00">Proxy Servers</text>
</g>
<!-- FastAPIBackend&#45;&gt;Proxy -->
<g id="edge3" class="edge">
<title>FastAPIBackend&#45;&gt;Proxy</title>
<path fill="none" stroke="black" d="M855.54,-52.64C904.26,-56.69 969.72,-62.14 1018.8,-66.22"/>
<polygon fill="black" stroke="black" points="1018.51,-69.71 1028.77,-67.05 1019.09,-62.74 1018.51,-69.71"/>
<text text-anchor="middle" x="942.85" y="-68.95" font-family="Times,serif" font-size="14.00"> 3a. Conceal Tracks</text>
</g>
<!-- VPN -->
<g id="node5" class="node">
<title>VPN</title>
<path fill="#d1c4e9" stroke="black" d="M1127.6,-36C1127.6,-36 1050.85,-36 1050.85,-36 1044.85,-36 1038.85,-30 1038.85,-24 1038.85,-24 1038.85,-12 1038.85,-12 1038.85,-6 1044.85,0 1050.85,0 1050.85,0 1127.6,0 1127.6,0 1133.6,0 1139.6,-6 1139.6,-12 1139.6,-12 1139.6,-24 1139.6,-24 1139.6,-30 1133.6,-36 1127.6,-36"/>
<text text-anchor="middle" x="1089.22" y="-13.32" font-family="Times,serif" font-size="14.00">VPN Tunnel</text>
</g>
<!-- FastAPIBackend&#45;&gt;VPN -->
<g id="edge4" class="edge">
<title>FastAPIBackend&#45;&gt;VPN</title>
<path fill="none" stroke="black" d="M855.21,-35.12C861.25,-34.24 867.28,-33.43 873.1,-32.75 924.87,-26.67 983.96,-22.84 1027.1,-20.61"/>
<polygon fill="black" stroke="black" points="1027.22,-24.11 1037.03,-20.11 1026.87,-17.12 1027.22,-24.11"/>
<text text-anchor="middle" x="942.85" y="-35.95" font-family="Times,serif" font-size="14.00"> 3b. Conceal Tracks</text>
</g>
<!-- ThirdPartyAPIs -->
<g id="node6" class="node">
<title>ThirdPartyAPIs</title>
<path fill="#b3e5fc" stroke="black" d="M1527.6,-63C1527.6,-63 1417.85,-63 1417.85,-63 1411.85,-63 1405.85,-57 1405.85,-51 1405.85,-51 1405.85,-39 1405.85,-39 1405.85,-33 1411.85,-27 1417.85,-27 1417.85,-27 1527.6,-27 1527.6,-27 1533.6,-27 1539.6,-33 1539.6,-39 1539.6,-39 1539.6,-51 1539.6,-51 1539.6,-57 1533.6,-63 1527.6,-63"/>
<text text-anchor="middle" x="1472.72" y="-40.33" font-family="Times,serif" font-size="14.00">Third&#45;Party APIs</text>
</g>
<!-- Proxy&#45;&gt;ThirdPartyAPIs -->
<g id="edge5" class="edge">
<title>Proxy&#45;&gt;ThirdPartyAPIs</title>
<path fill="none" stroke="black" d="M1148.17,-67.9C1213.86,-63.25 1321.26,-55.65 1394.14,-50.49"/>
<polygon fill="black" stroke="black" points="1394.29,-53.99 1404.02,-49.79 1393.8,-47.01 1394.29,-53.99"/>
<text text-anchor="middle" x="1276.85" y="-69.95" font-family="Times,serif" font-size="14.00"> 4. Anonymized Data Exchange</text>
</g>
<!-- VPN&#45;&gt;ThirdPartyAPIs -->
<g id="edge6" class="edge">
<title>VPN&#45;&gt;ThirdPartyAPIs</title>
<path fill="none" stroke="black" d="M1139.88,-17.84C1199.1,-18.13 1300.98,-20.19 1387.85,-29.75 1389.91,-29.98 1392,-30.22 1394.1,-30.49"/>
<polygon fill="black" stroke="black" points="1393.58,-33.95 1403.96,-31.86 1394.54,-27.02 1393.58,-33.95"/>
<text text-anchor="middle" x="1276.85" y="-32.95" font-family="Times,serif" font-size="14.00"> 4. Anonymized Data Exchange</text>
</g>
</g>
</svg>
